<?xml version="1.0" encoding="utf-8"?>
<!-- Generator: Adobe Illustrator 21.1.0, SVG Export Plug-In . SVG Version: 6.00 Build 0)  -->
<svg version="1.1" id="Layer_1" xmlns="http://www.w3.org/2000/svg" xmlns:xlink="http://www.w3.org/1999/xlink" x="0px" y="0px"
	 viewBox="0 0 240 240" style="enable-background:new 0 0 240 240;" xml:space="preserve">
<style type="text/css">
	.st0{fill:#01FEFD;}
	.st1{fill:#E5FE01;}
</style>
<g>
	<path class="st0" d="M162.8,78.8c18,0,36,0,54,0c0,36,0,72,0,108c-41.9,0-83.8,0-126,0c0-14.1,0-28,0-42c0-8,0-16,0-24
		c0-13.9,0-27.9,0-42c16.1,0,32.1,0,48,0c0,8,0,16,0,24c-7.9,0-15.9,0-24,0c0,6.1,0,12.1,0,18c0,8,0,16,0,24c0,6,0,11.9,0,17.8
		c26.1,0,52,0,77.9,0c0-20,0-39.8,0-59.8c-10,0-20,0-29.9,0C162.8,94.8,162.8,86.8,162.8,78.8z"/>
	<path class="st1" d="M114.8,144.8c0-8,0-16,0-24c7.9,0,15.9,0,24,0c0-6.1,0-12.1,0-18c0-8,0-16,0-24c0-6,0-11.9,0-17.8
		c-26.1,0-52,0-77.9,0c0,20,0,39.8,0,59.8c10,0,20,0,29.9,0c0,8,0,16,0,24c-18,0-35.9,0-53.9,0c0-36,0-71.9,0-107.8
		c41.9,0,83.8,0,125.9,0c0,13.9,0,27.9,0,41.8c0,8,0,16,0,24c0,13.9,0,27.9,0,42C146.6,144.8,130.7,144.8,114.8,144.8z"/>
</g>
</svg>
