<?xml version="1.0" encoding="utf-8"?>
<!-- Generator: Adobe Illustrator 21.1.0, SVG Export Plug-In . SVG Version: 6.00 Build 0)  -->
<svg version="1.1" id="amazon" xmlns="http://www.w3.org/2000/svg" xmlns:xlink="http://www.w3.org/1999/xlink" x="0px" y="0px"
	 viewBox="0 0 64 64" style="enable-background:new 0 0 64 64;" xml:space="preserve">
<style type="text/css">
	.st0{fill:#F39700;}
</style>
<path class="st0" d="M2.2,49.5c5.7,6.7,13.4,11.5,22,13.7c7.7,1.6,15.7,0.7,22.9-2.5c3.6-1.6,6.8-3.9,9.6-6.7
	c0.3-0.4,0.1-0.9-0.3-1.2c-0.3-0.1-0.8-0.1-1.1,0c-5.3,2.7-10.9,4.6-16.7,5.6c-6.1,0.7-12.3,0.3-18.3-1.3c-6.1-2-11.9-4.9-17.1-8.6
	c-0.4-0.1-0.8,0.1-0.9,0.5C2.1,49.2,2.1,49.4,2.2,49.5z"/>
<path class="st0" d="M50.8,50.9c2.3-0.5,4.7-0.5,7-0.3h0.1c0.7,0.2,1.2,0.9,1.1,1.8c-0.5,2.3-1.2,4.5-2.2,6.6
	c-0.1,0.2,0.1,0.4,0.3,0.5c0.1,0.1,0.2,0,0.3-0.1c2.8-2.2,4.4-5.6,4.4-9.2c0.1-0.9-0.5-1.8-1.5-1.9c-3.4-0.6-6.9,0.1-9.9,2
	c-0.1,0.1-0.2,0.3-0.1,0.5C50.5,50.9,50.7,51,50.8,50.9z"/>
<path d="M38.9,41.8c-1.2,1.3-2.6,2.6-4.2,3.6c-2.9,1.7-6.2,2.6-9.6,2.7c-3-0.1-5.9-1.1-8.2-2.8c-4-3.6-5.5-9.2-3.9-14.4
	c1.5-4.5,4.9-8.2,9.4-9.8c4.9-1.5,9.9-2.2,15-2.2v-5.3c-0.3-2.4-2.3-4.3-4.7-4.6c-1.6-0.2-3,0-4.4,0.6c-2,0.9-3.4,2.8-3.9,5
	c-0.3,0.7-1.1,1.1-1.8,0.9l-7.3-0.7c-0.7-0.2-1.1-0.7-1.2-1.5c0.5-3.6,2.4-6.8,5.2-9.1c3.7-2.8,8.3-4.4,13-4.3
	c4.3,0.1,8.6,1.4,12.1,4c3,2.5,4.6,6.2,4.4,10v18.4c0.1,1.6,0.5,3.1,1.1,4.4l2.3,3.3c0.3,0.5,0.3,1.1,0,1.6l-6.7,5.7
	c-0.6,0.3-1.3,0.3-1.8-0.1C41.9,45.7,40.3,43.9,38.9,41.8z M37.4,25.1c-2.1-0.1-4.2,0.1-6.3,0.4c-2.6,0.5-4.7,2.2-6,4.5
	c-1,2.5-0.9,5.3,0.5,7.8c1.6,2,4.4,2.7,6.7,1.8c2.8-1.8,4.7-4.7,5.1-8V25.1"/>
</svg>
