<?xml version="1.0" encoding="utf-8"?>
<!-- Generator: Adobe Illustrator 21.1.0, SVG Export Plug-In . SVG Version: 6.00 Build 0)  -->
<svg version="1.1" id="logo" xmlns="http://www.w3.org/2000/svg" xmlns:xlink="http://www.w3.org/1999/xlink" x="0px" y="0px"
	 viewBox="0 0 64 64" style="enable-background:new 0 0 64 64;" xml:space="preserve">
<path d="M15,38.6h-3.5L10.4,36H4.5l-1,2.6H0l5.3-13.2h3.8L15,38.6z M7.3,28.6l-1.9,5.1h4.1L7.3,28.6z"/>
<path d="M27.9,25.4h2.9v13.2h-3.3v-8.3l-3.6,4.2h-0.5l-3.6-4.2v8.3h-3.3V25.4h2.9l4.2,4.9L27.9,25.4z"/>
<path d="M39.2,25.4c4.8,0,7.3,3,7.3,6.6c0,3.8-2.4,6.6-7.7,6.6h-5.5V25.4H39.2z M36.6,36.2h2.2c3.3,0,4.3-2.3,4.3-4.2
	c0-2.3-1.2-4.2-4.3-4.2h-2.1L36.6,36.2L36.6,36.2z"/>
<polygon points="53,28.5 48.9,24.4 64,24.4 64,39.5 59.8,35.3 59.8,28.5 "/>
<polygon points="53,29.4 48.7,33.6 48.7,39.6 54.7,39.6 59,35.4 53,35.4 "/>
</svg>
