<?xml version="1.0" encoding="utf-8"?>
<!-- Generator: Adobe Illustrator 21.1.0, SVG Export Plug-In . SVG Version: 6.00 Build 0)  -->
<svg version="1.1" id="Layer_1" xmlns="http://www.w3.org/2000/svg" xmlns:xlink="http://www.w3.org/1999/xlink" x="0px" y="0px"
	 viewBox="0 0 64 64" style="enable-background:new 0 0 64 64;" xml:space="preserve">
<path d="M57.8,49.9c-1,2.2-2.1,4.3-3.4,6.2c-1.8,2.6-3.3,4.4-4.4,5.4c-1.8,1.6-3.7,2.5-5.7,2.5c-1.5,0-3.2-0.4-5.3-1.3
	c-2.1-0.8-3.9-1.3-5.7-1.3c-1.8,0-3.7,0.4-5.8,1.3c-2.1,0.8-3.8,1.3-5,1.3c-1.9,0.1-3.9-0.8-5.8-2.6c-1.2-1.1-2.8-2.9-4.6-5.5
	c-2-2.8-3.6-6-4.9-9.7C5.7,42.1,5,38.3,5,34.5c0-4.3,0.9-8,2.8-11.1c1.5-2.5,3.4-4.5,5.8-5.9s5.1-2.2,7.9-2.2c1.5,0,3.6,0.5,6.1,1.4
	c2.5,0.9,4.1,1.4,4.8,1.4c0.5,0,2.3-0.6,5.4-1.7c2.9-1,5.3-1.5,7.3-1.3c5.4,0.4,9.4,2.6,12.1,6.4c-4.8,2.9-7.2,7-7.2,12.2
	c0,4.1,1.5,7.5,4.4,10.2c1.3,1.3,2.8,2.2,4.4,2.9C58.6,47.9,58.2,48.9,57.8,49.9L57.8,49.9z M45.5,1.3c0,3.2-1.2,6.2-3.5,9
	c-2.8,3.3-6.2,5.2-9.9,4.9c0-0.4-0.1-0.8-0.1-1.2c0-3.1,1.3-6.4,3.7-9c1.2-1.4,2.7-2.5,4.5-3.4c1.8-0.9,3.6-1.4,5.2-1.5
	C45.5,0.4,45.5,0.9,45.5,1.3L45.5,1.3z"/>
</svg>
