<?xml version="1.0" encoding="utf-8"?>
<!-- Generator: Adobe Illustrator 21.1.0, SVG Export Plug-In . SVG Version: 6.00 Build 0)  -->
<svg version="1.1" id="Layer_1" xmlns="http://www.w3.org/2000/svg" xmlns:xlink="http://www.w3.org/1999/xlink" x="0px" y="0px"
	 viewBox="0 0 128 128" style="enable-background:new 0 0 128 128;" xml:space="preserve">
<style type="text/css">
	.st0{fill:#699F63;}
	.st1{fill-rule:evenodd;clip-rule:evenodd;fill:#333333;}
	.st2{fill-rule:evenodd;clip-rule:evenodd;fill:#699F63;}
	.st3{clip-path:url(#XMLID_3_);}
	.st4{fill:none;}
	.st5{fill:url(#SVGID_1_);}
	.st6{fill:url(#SVGID_2_);}
	.st7{fill:url(#SVGID_3_);}
	.st8{fill:url(#SVGID_4_);}
	.st9{fill:url(#SVGID_5_);}
	.st10{fill:url(#SVGID_6_);}
</style>
<g>
	<path class="st0" d="M62.8,102.7c-0.4,0-0.8-0.1-1.2-0.3l-3.9-2.3c-0.6-0.3-0.3-0.4-0.1-0.5c0.8-0.3,0.9-0.3,1.7-0.8
		c0.1,0,0.2,0,0.3,0l3,1.8c0.1,0.1,0.3,0.1,0.4,0l11.6-6.7c0.1-0.1,0.2-0.2,0.2-0.3V80.2c0-0.1-0.1-0.3-0.2-0.3l-11.6-6.7
		c-0.1-0.1-0.2-0.1-0.4,0L51,79.9c-0.1,0.1-0.2,0.2-0.2,0.3v13.3c0,0.1,0.1,0.2,0.2,0.3l3.2,1.8c1.7,0.9,2.8-0.2,2.8-1.2V81.4
		c0-0.2,0.1-0.3,0.3-0.3h1.5c0.2,0,0.3,0.1,0.3,0.3v13.2c0,2.3-1.2,3.6-3.4,3.6c-0.7,0-1.2,0-2.7-0.7l-3-1.7
		c-0.7-0.4-1.2-1.2-1.2-2.1V80.2c0-0.9,0.5-1.7,1.2-2.1l11.6-6.7c0.7-0.4,1.7-0.4,2.4,0l11.6,6.7c0.7,0.4,1.2,1.2,1.2,2.1v13.3
		c0,0.9-0.5,1.7-1.2,2.1L64,102.4C63.6,102.6,63.2,102.7,62.8,102.7z"/>
	<path class="st0" d="M66.3,93.5c-5.1,0-6.1-2.3-6.1-4.3c0-0.2,0.1-0.3,0.3-0.3H62c0.2,0,0.3,0.1,0.3,0.3c0.2,1.5,0.9,2.3,4,2.3
		c2.4,0,3.5-0.6,3.5-1.8c0-0.7-0.3-1.3-4.1-1.7c-3.2-0.3-5.1-1-5.1-3.5c0-2.3,2-3.7,5.3-3.7c3.7,0,5.5,1.3,5.8,4
		c0,0.1,0,0.2-0.1,0.3c-0.1,0.1-0.2,0.1-0.2,0.1h-1.5c-0.2,0-0.3-0.1-0.3-0.3c-0.4-1.6-1.2-2.1-3.6-2.1c-2.7,0-3,0.9-3,1.6
		c0,0.8,0.4,1.1,4,1.6c3.6,0.5,5.2,1.1,5.2,3.6C72.1,92,70,93.5,66.3,93.5z"/>
</g>
<path class="st1" d="M27,50.5c0-0.5-0.3-1-0.7-1.3L14,42.1C13.8,42,13.5,42,13.3,42c0,0-0.1,0-0.1,0c-0.2,0-0.5,0.1-0.7,0.2
	L0.2,49.2c-0.5,0.3-0.7,0.8-0.7,1.3l0,19c0,0.3,0.1,0.5,0.4,0.6c0.2,0.1,0.5,0.1,0.7,0l7.3-4.2c0.5-0.3,0.7-0.8,0.7-1.3v-8.9
	c0-0.5,0.3-1,0.7-1.3l3.1-1.8c0.2-0.1,0.5-0.2,0.7-0.2c0.3,0,0.5,0.1,0.7,0.2l3.1,1.8c0.5,0.3,0.7,0.8,0.7,1.3v8.9
	c0,0.5,0.3,1,0.7,1.3l7.3,4.2c0.2,0.1,0.5,0.1,0.7,0c0.2-0.1,0.4-0.4,0.4-0.6L27,50.5z"/>
<path class="st1" d="M85.9,24.4c-0.2-0.1-0.5-0.1-0.7,0c-0.2,0.1-0.4,0.4-0.4,0.6v18.8c0,0.2-0.1,0.4-0.3,0.4
	c-0.2,0.1-0.4,0.1-0.5,0L81,42.5c-0.5-0.3-1-0.3-1.5,0l-12.3,7.1c-0.5,0.3-0.7,0.8-0.7,1.3V65c0,0.5,0.3,1,0.7,1.3l12.3,7.1
	c0.5,0.3,1,0.3,1.5,0l12.3-7.1C93.7,66,94,65.6,94,65V29.7c0-0.5-0.3-1-0.8-1.3L85.9,24.4z M84.8,60.4c0,0.1-0.1,0.3-0.2,0.3
	l-4.2,2.4c-0.1,0.1-0.3,0.1-0.4,0l-4.2-2.4c-0.1-0.1-0.2-0.2-0.2-0.3v-4.9c0-0.1,0.1-0.3,0.2-0.3l4.2-2.4c0.1-0.1,0.3-0.1,0.4,0
	l4.2,2.4c0.1,0.1,0.2,0.2,0.2,0.3V60.4z"/>
<g>
	<path class="st1" d="M126.8,55.4c0.5-0.3,0.7-0.8,0.7-1.3v-3.4c0-0.5-0.3-1-0.7-1.3l-12.2-7.1c-0.5-0.3-1-0.3-1.5,0l-12.3,7.1
		c-0.5,0.3-0.7,0.8-0.7,1.3v14.2c0,0.5,0.3,1,0.7,1.3l12.2,6.9c0.4,0.3,1,0.3,1.5,0l7.4-4.1c0.2-0.1,0.4-0.4,0.4-0.6
		c0-0.3-0.1-0.5-0.4-0.6l-12.3-7.1c-0.2-0.1-0.4-0.4-0.4-0.6v-4.4c0-0.3,0.1-0.5,0.4-0.6l3.8-2.2c0.2-0.1,0.5-0.1,0.7,0l3.8,2.2
		c0.2,0.1,0.4,0.4,0.4,0.6V59c0,0.3,0.1,0.5,0.4,0.6c0.2,0.1,0.5,0.1,0.7,0L126.8,55.4z"/>
	<path class="st2" d="M113.7,54.7c0.1-0.1,0.2-0.1,0.3,0l2.4,1.4c0.1,0.1,0.1,0.1,0.1,0.2V59c0,0.1-0.1,0.2-0.1,0.2l-2.4,1.4
		c-0.1,0.1-0.2,0.1-0.3,0l-2.4-1.4c-0.1-0.1-0.1-0.1-0.1-0.2v-2.7c0-0.1,0.1-0.2,0.1-0.2L113.7,54.7z"/>
</g>
<g>
	<defs>
		<path id="XMLID_143_" d="M47.5,42.4c-0.5-0.3-1-0.3-1.5,0l-12.2,7c-0.5,0.3-0.7,0.7-0.7,1.3v14.1c0,0.5,0.3,1,0.7,1.3l12.2,7
			c0.5,0.3,1,0.3,1.5,0l12.2-7c0.5-0.3,0.7-0.7,0.7-1.3V50.7c0-0.5-0.3-1-0.7-1.3L47.5,42.4z"/>
	</defs>
	<linearGradient id="XMLID_2_" gradientUnits="userSpaceOnUse" x1="51.6889" y1="47.6341" x2="40.6749" y2="70.1028">
		<stop  offset="0" style="stop-color:#41873F"/>
		<stop  offset="0.3288" style="stop-color:#418B3D"/>
		<stop  offset="0.6352" style="stop-color:#419637"/>
		<stop  offset="0.9319" style="stop-color:#3FA92D"/>
		<stop  offset="1" style="stop-color:#3FAE2A"/>
	</linearGradient>
	<use xlink:href="#XMLID_143_"  style="overflow:visible;fill-rule:evenodd;clip-rule:evenodd;fill:url(#XMLID_2_);"/>
	<clipPath id="XMLID_3_">
		<use xlink:href="#XMLID_143_"  style="overflow:visible;"/>
	</clipPath>
	<g class="st3">
		<path class="st4" d="M46,42.4l-12.2,7c-0.5,0.3-0.8,0.7-0.8,1.3v14.1c0,0.3,0.1,0.7,0.4,0.9l13.7-23.5
			C46.7,42.2,46.3,42.2,46,42.4z"/>
		<path class="st4" d="M47.1,73.2c0.1,0,0.2-0.1,0.3-0.1l12.2-7c0.5-0.3,0.8-0.7,0.8-1.3V50.7c0-0.4-0.2-0.8-0.4-1L47.1,73.2z"/>
		<linearGradient id="SVGID_1_" gradientUnits="userSpaceOnUse" x1="44.8765" y1="59.393" x2="75.7811" y2="36.559">
			<stop  offset="0.1376" style="stop-color:#41873F"/>
			<stop  offset="0.4032" style="stop-color:#54A044"/>
			<stop  offset="0.7136" style="stop-color:#66B848"/>
			<stop  offset="0.9081" style="stop-color:#6CC04A"/>
		</linearGradient>
		<path class="st5" d="M59.7,49.4l-12.2-7c-0.1-0.1-0.2-0.1-0.4-0.2L33.3,65.7c0.1,0.1,0.3,0.2,0.4,0.3l12.2,7
			c0.3,0.2,0.8,0.2,1.1,0.1L60,49.7C59.9,49.6,59.8,49.5,59.7,49.4z"/>
	</g>
	<g class="st3">
		<path class="st4" d="M60.5,64.8V50.7c0-0.5-0.3-1-0.8-1.3l-12.2-7c-0.1-0.1-0.3-0.1-0.4-0.2l13.4,22.9
			C60.4,65,60.5,64.9,60.5,64.8z"/>
		<path class="st4" d="M33.8,49.4c-0.5,0.3-0.8,0.7-0.8,1.3v14.1c0,0.5,0.3,1,0.8,1.3l12.2,7c0.3,0.2,0.6,0.2,0.9,0.2L33.8,49.4
			L33.8,49.4z"/>
		<linearGradient id="SVGID_2_" gradientUnits="userSpaceOnUse" x1="32.6383" y1="39.8563" x2="60.8259" y2="39.8563">
			<stop  offset="9.191646e-02" style="stop-color:#6CC04A"/>
			<stop  offset="0.2864" style="stop-color:#66B848"/>
			<stop  offset="0.5968" style="stop-color:#54A044"/>
			<stop  offset="0.8624" style="stop-color:#41873F"/>
		</linearGradient>
		<polygon class="st6" points="45.6,39.8 45.4,39.9 45.6,39.9 		"/>
		<linearGradient id="SVGID_3_" gradientUnits="userSpaceOnUse" x1="32.6383" y1="57.7431" x2="60.8259" y2="57.7431">
			<stop  offset="9.191646e-02" style="stop-color:#6CC04A"/>
			<stop  offset="0.2864" style="stop-color:#66B848"/>
			<stop  offset="0.5968" style="stop-color:#54A044"/>
			<stop  offset="0.8624" style="stop-color:#41873F"/>
		</linearGradient>
		<path class="st7" d="M59.7,66.1c0.4-0.2,0.6-0.5,0.7-0.9L47,42.2c-0.3-0.1-0.7,0-1,0.2l-12.1,7l13.1,23.9c0.2,0,0.4-0.1,0.5-0.2
			L59.7,66.1z"/>
		<linearGradient id="SVGID_4_" gradientUnits="userSpaceOnUse" x1="32.6383" y1="65.7901" x2="60.8259" y2="65.7901">
			<stop  offset="9.191646e-02" style="stop-color:#6CC04A"/>
			<stop  offset="0.2864" style="stop-color:#66B848"/>
			<stop  offset="0.5968" style="stop-color:#54A044"/>
			<stop  offset="0.8624" style="stop-color:#41873F"/>
		</linearGradient>
		<polygon class="st8" points="60.8,65.8 60.7,65.7 60.7,65.9 		"/>
		<linearGradient id="SVGID_5_" gradientUnits="userSpaceOnUse" x1="32.6383" y1="69.4271" x2="60.8259" y2="69.4271">
			<stop  offset="9.191646e-02" style="stop-color:#6CC04A"/>
			<stop  offset="0.2864" style="stop-color:#66B848"/>
			<stop  offset="0.5968" style="stop-color:#54A044"/>
			<stop  offset="0.8624" style="stop-color:#41873F"/>
		</linearGradient>
		<path class="st9" d="M59.7,66.1l-12.2,7c-0.2,0.1-0.4,0.2-0.5,0.2l0.2,0.4l13.6-7.8v-0.2l-0.3-0.6C60.3,65.5,60,65.9,59.7,66.1z"
			/>
		<linearGradient id="SVGID_6_" gradientUnits="userSpaceOnUse" x1="64.9325" y1="46.968" x2="47.5482" y2="82.432">
			<stop  offset="0" style="stop-color:#41873F"/>
			<stop  offset="0.3288" style="stop-color:#418B3D"/>
			<stop  offset="0.6352" style="stop-color:#419637"/>
			<stop  offset="0.9319" style="stop-color:#3FA92D"/>
			<stop  offset="1" style="stop-color:#3FAE2A"/>
		</linearGradient>
		<path class="st10" d="M59.7,66.1l-12.2,7c-0.2,0.1-0.4,0.2-0.5,0.2l0.2,0.4l13.6-7.8v-0.2l-0.3-0.6C60.3,65.5,60,65.9,59.7,66.1z"
			/>
	</g>
</g>
</svg>
