<?xml version="1.0" encoding="utf-8"?>
<!-- Generator: Adobe Illustrator 21.1.0, SVG Export Plug-In . SVG Version: 6.00 Build 0)  -->
<svg version="1.1" id="Capa_1" xmlns="http://www.w3.org/2000/svg" xmlns:xlink="http://www.w3.org/1999/xlink" x="0px" y="0px"
	 viewBox="0 0 32 32" style="enable-background:new 0 0 32 32;" xml:space="preserve">
<style type="text/css">
	.st0{fill:#F0F0F0;}
	.st1{fill:#0052B4;}
	.st2{fill:#D80027;}
</style>
<rect y="5.3" class="st0" width="32" height="21.3"/>
<rect y="12.4" class="st1" width="32" height="7.1"/>
<rect y="19.6" class="st2" width="32" height="7.1"/>
<path class="st0" d="M14.6,12.3v0.9c0,2.1-2.8,2.8-2.8,2.8S9,15.3,9,13.2v-0.9l0-2.8l5.6,0L14.6,12.3z"/>
<path class="st1" d="M14.6,12.3v0.9c0,2.1-2.8,2.8-2.8,2.8S9,15.3,9,13.2v-0.9l0-2.8l5.6,0L14.6,12.3z"/>
<path class="st0" d="M14.6,12.3v0.9c0,2.1-2.8,2.8-2.8,2.8S9,15.3,9,13.2v-0.9l0.9,0.9l1.9-1.4l1.9,1.4L14.6,12.3z"/>
</svg>
