<?xml version="1.0" encoding="utf-8"?>
<!-- Generator: Adobe Illustrator 21.1.0, SVG Export Plug-In . SVG Version: 6.00 Build 0)  -->
<svg version="1.1"
	 id="Layer_1" inkscape:version="0.92.0 r15299" sodipodi:docname="Tesla_Motors.svg" xmlns:cc="http://creativecommons.org/ns#" xmlns:dc="http://purl.org/dc/elements/1.1/" xmlns:inkscape="http://www.inkscape.org/namespaces/inkscape" xmlns:rdf="http://www.w3.org/1999/02/22-rdf-syntax-ns#" xmlns:sodipodi="http://sodipodi.sourceforge.net/DTD/sodipodi-0.dtd" xmlns:svg="http://www.w3.org/2000/svg"
	 xmlns="http://www.w3.org/2000/svg" xmlns:xlink="http://www.w3.org/1999/xlink" x="0px" y="0px" viewBox="0 0 64 64"
	 style="enable-background:new 0 0 64 64;" xml:space="preserve">
<style type="text/css">
	.st0{fill:#FF2222;}
</style>
<g id="T" transform="translate(-45.84,-64.297)">
	<path id="path35" inkscape:connector-curvature="0" class="st0" d="M77.8,128.2l9-50.3c8.5,0,11.2,0.9,11.6,4.7
		c0,0,5.7-2.1,8.6-6.5c-11.3-5.2-22.6-5.5-22.6-5.5l-6.6,8.1h0l-6.6-8.1c0,0-11.3,0.2-22.6,5.5c2.9,4.3,8.6,6.5,8.6,6.5
		c0.4-3.8,3.1-4.7,11.6-4.8L77.8,128.2"/>
	<path id="path37" inkscape:connector-curvature="0" class="st0" d="M77.8,68.3c9.1-0.1,19.5,1.4,30.2,6.1c1.4-2.6,1.8-3.7,1.8-3.7
		c-11.7-4.6-22.6-6.2-32-6.2c-9.4,0.1-20.3,1.6-32,6.2c0,0,0.5,1.4,1.8,3.7C58.3,69.7,68.7,68.2,77.8,68.3L77.8,68.3"/>
</g>
</svg>
